<svg width="21" height="21" viewBox="0 0 21 21" fill="none" xmlns="http://www.w3.org/2000/svg">
<path fill-rule="evenodd" clip-rule="evenodd" d="M8.64295 15.5894L8.37441 16.5485L8.76528 19.6196H16.5012L16.892 16.5485L16.6235 15.5894H8.64295ZM17.382 14.5894H7.88449L7.35685 16.4739L7.88449 20.6196H17.382L17.9096 16.4739L17.382 14.5894Z" fill="#417A82"/>
<path fill-rule="evenodd" clip-rule="evenodd" d="M17.6181 17.5794H7.61809V16.5794H17.6181V17.5794Z" fill="#417A82"/>
<path fill-rule="evenodd" clip-rule="evenodd" d="M9.61809 6.83287V15.5794H15.6181V8.03649L9.61809 6.83287ZM10.6181 8.0534V14.5794H14.6181V8.85581L10.6181 8.0534Z" fill="#417A82"/>
<path fill-rule="evenodd" clip-rule="evenodd" d="M17.8116 3.17436L7.0366 1.0198C6.49503 0.911506 5.96822 1.26274 5.85993 1.80431L5.2346 4.93159C5.12631 5.47315 5.47755 5.99996 6.01911 6.10826L16.7941 8.26282C18.1993 8.54379 19.5661 7.63248 19.8471 6.22734C20.1281 4.8222 19.2168 3.45534 17.8116 3.17436ZM7.23267 0.039209C6.14955 -0.177373 5.09592 0.525101 4.87934 1.60823L4.25401 4.73551C4.03743 5.81864 4.7399 6.87226 5.82303 7.08884L16.598 9.24341C18.5448 9.63267 20.4384 8.37012 20.8277 6.42341C21.2169 4.47671 19.9544 2.58304 18.0077 2.19378L7.23267 0.039209Z" fill="#417A82"/>
<path fill-rule="evenodd" clip-rule="evenodd" d="M17.2944 8.71617L18.4477 2.94829L19.4283 3.14437L18.275 8.91225L17.2944 8.71617Z" fill="#417A82"/>
<path fill-rule="evenodd" clip-rule="evenodd" d="M5.61807 6.9923L6.89956 0.58354L7.88015 0.779618L6.59866 7.18838L5.61807 6.9923Z" fill="#417A82"/>
<path fill-rule="evenodd" clip-rule="evenodd" d="M4.80954 1.90741L4.56329 1.85817C4.02173 1.74988 3.49492 2.10112 3.38662 2.64268L3.27389 3.20646C3.1656 3.74803 3.51684 4.27484 4.0584 4.38313L4.30465 4.43237L4.80954 1.90741ZM4.75937 0.877583C3.67624 0.661002 2.62262 1.36348 2.40604 2.44661L2.2933 3.01038C2.07672 4.09351 2.7792 5.14713 3.86232 5.36371L5.08916 5.60903L5.9862 1.1229L4.75937 0.877583Z" fill="#417A82"/>
<path fill-rule="evenodd" clip-rule="evenodd" d="M0.196078 1.96466L3.15263 2.55585L2.95655 3.53644L0 2.94525L0.196078 1.96466Z" fill="#417A82"/>
</svg>
