<svg width="25" height="23" viewBox="0 0 25 23" fill="none" xmlns="http://www.w3.org/2000/svg">
<path fill-rule="evenodd" clip-rule="evenodd" d="M24 1H1V2H24V1ZM0 0V3H25V0H0Z" fill="#417A82"/>
<path fill-rule="evenodd" clip-rule="evenodd" d="M22 3H3V22H22V3ZM2 23V2H23V23H2Z" fill="#417A82"/>
<path fill-rule="evenodd" clip-rule="evenodd" d="M3.00006 12.7987C3.03637 12.7837 3.0725 12.7678 3.10841 12.751C3.46452 12.5851 3.79624 12.3381 4.08108 12.0176C4.36612 11.6969 4.59755 11.3101 4.75717 10.8766C4.9168 10.443 5.00006 9.97494 5.00006 9.5C5.00006 9.02506 4.9168 8.557 4.75717 8.12344C4.59755 7.68992 4.36612 7.30305 4.08108 6.98238C3.79624 6.66194 3.46452 6.4149 3.10841 6.24896C3.0725 6.23222 3.03637 6.21633 3.00006 6.20128V12.7987ZM3.00006 13.8571C3.1805 13.8047 3.35786 13.738 3.53079 13.6575C4.0161 13.4313 4.45705 13.0998 4.82849 12.682C5.19992 12.2641 5.49456 11.768 5.69558 11.2221C5.8966 10.6761 6.00006 10.0909 6.00006 9.5C6.00006 8.90905 5.8966 8.32389 5.69558 7.77792C5.49456 7.23196 5.19992 6.73588 4.82849 6.31802C4.45705 5.90016 4.0161 5.56869 3.53079 5.34254C3.35786 5.26196 3.1805 5.19531 3.00006 5.14289C2.67414 5.04822 2.33817 5 2.00006 5V14C2.33817 14 2.67414 13.9518 3.00006 13.8571Z" fill="#417A82"/>
<path fill-rule="evenodd" clip-rule="evenodd" d="M19.7988 22C19.7837 21.9637 19.7678 21.9276 19.7511 21.8916C19.5852 21.5355 19.3381 21.2038 19.0177 20.919C18.697 20.6339 18.3101 20.4025 17.8766 20.2429C17.4431 20.0833 16.975 20 16.5001 20C16.0251 20 15.5571 20.0833 15.1235 20.2429C14.69 20.4025 14.3031 20.6339 13.9824 20.919C13.662 21.2038 13.415 21.5355 13.249 21.8916C13.2323 21.9276 13.2164 21.9637 13.2013 22L19.7988 22ZM20.8572 22C20.8048 21.8196 20.7381 21.6422 20.6575 21.4693C20.4314 20.984 20.0999 20.543 19.682 20.1716C19.2642 19.8001 18.7681 19.5055 18.2221 19.3045C17.6762 19.1035 17.091 19 16.5001 19C15.9091 19 15.324 19.1035 14.778 19.3045C14.232 19.5055 13.7359 19.8001 13.3181 20.1716C12.9002 20.543 12.5687 20.984 12.3426 21.4693C12.262 21.6422 12.1954 21.8196 12.143 22C12.0483 22.3259 12.0001 22.6619 12.0001 23L21.0001 23C21.0001 22.6619 20.9518 22.3259 20.8572 22Z" fill="#417A82"/>
<path fill-rule="evenodd" clip-rule="evenodd" d="M18.5001 8C19.3285 8 20.0001 7.32843 20.0001 6.5C20.0001 5.67157 19.3285 5 18.5001 5C17.6716 5 17.0001 5.67157 17.0001 6.5C17.0001 7.32843 17.6716 8 18.5001 8ZM18.5001 9C19.8808 9 21.0001 7.88071 21.0001 6.5C21.0001 5.11929 19.8808 4 18.5001 4C17.1193 4 16.0001 5.11929 16.0001 6.5C16.0001 7.88071 17.1193 9 18.5001 9Z" fill="#417A82"/>
<path fill-rule="evenodd" clip-rule="evenodd" d="M6.50006 20C7.32849 20 8.00006 19.3284 8.00006 18.5C8.00006 17.6716 7.32849 17 6.50006 17C5.67163 17 5.00006 17.6716 5.00006 18.5C5.00006 19.3284 5.67163 20 6.50006 20ZM6.50006 21C7.88077 21 9.00006 19.8807 9.00006 18.5C9.00006 17.1193 7.88077 16 6.50006 16C5.11935 16 4.00006 17.1193 4.00006 18.5C4.00006 19.8807 5.11935 21 6.50006 21Z" fill="#417A82"/>
<path fill-rule="evenodd" clip-rule="evenodd" d="M14.5001 16C15.8808 16 17.0001 14.8807 17.0001 13.5C17.0001 12.1193 15.8808 11 14.5001 11C13.1193 11 12.0001 12.1193 12.0001 13.5C12.0001 14.8807 13.1193 16 14.5001 16ZM14.5001 17C16.4331 17 18.0001 15.433 18.0001 13.5C18.0001 11.567 16.4331 10 14.5001 10C12.5671 10 11.0001 11.567 11.0001 13.5C11.0001 15.433 12.5671 17 14.5001 17Z" fill="#417A82"/>
<path fill-rule="evenodd" clip-rule="evenodd" d="M10.0001 22L10.0001 3L11.0001 3L11.0001 22L10.0001 22Z" fill="#417A82"/>
<path fill-rule="evenodd" clip-rule="evenodd" d="M14.0001 22L14.0001 3H15.0001L15.0001 22H14.0001Z" fill="#417A82"/>
<path fill-rule="evenodd" clip-rule="evenodd" d="M18.0001 22L18.0001 3L19.0001 3L19.0001 22L18.0001 22Z" fill="#417A82"/>
<path fill-rule="evenodd" clip-rule="evenodd" d="M6.00006 22L6.00006 3H7.00006L7.00006 22H6.00006Z" fill="#417A82"/>
</svg>
