<svg width="25" height="26" viewBox="0 0 25 26" fill="none" xmlns="http://www.w3.org/2000/svg">
<path fill-rule="evenodd" clip-rule="evenodd" d="M4.69718 17.0249H2.98123C2.56995 17.0249 2.22559 17.3365 2.18467 17.7458L1.7798 21.7945C1.65796 23.0129 2.61474 24.0701 3.83921 24.0701C5.06368 24.0701 6.02046 23.0129 5.89862 21.7945L5.49374 17.7458C5.45282 17.3365 5.10846 17.0249 4.69718 17.0249ZM2.98123 16.0249C2.0562 16.0249 1.28168 16.7258 1.18963 17.6463L0.784759 21.695C0.604052 23.5021 2.02312 25.0701 3.83921 25.0701C5.6553 25.0701 7.07436 23.5021 6.89365 21.695L6.48878 17.6463C6.39674 16.7258 5.62221 16.0249 4.69718 16.0249H2.98123Z" fill="#417A82"/>
<path d="M4.96986 19.4173C4.96986 20.0417 4.46365 20.5479 3.83921 20.5479C3.21477 20.5479 2.70856 20.0417 2.70856 19.4173C2.70856 18.7928 3.21477 18.2866 3.83921 18.2866C4.46365 18.2866 4.96986 18.7928 4.96986 19.4173Z" fill="#417A82"/>
<path fill-rule="evenodd" clip-rule="evenodd" d="M24 1H1V2H24V1ZM0 0V3H25V0H0Z" fill="#417A82"/>
<path fill-rule="evenodd" clip-rule="evenodd" d="M22.0151 22L22.0151 3L23.0151 3L23.0151 22L22.0151 22Z" fill="#417A82"/>
<path fill-rule="evenodd" clip-rule="evenodd" d="M17.0302 20L17.0302 5L18.0302 5L18.0302 20L17.0302 20Z" fill="#417A82"/>
<path fill-rule="evenodd" clip-rule="evenodd" d="M14 20.0754L14 5L15 5L15 20.0754L14 20.0754Z" fill="#417A82"/>
<path fill-rule="evenodd" clip-rule="evenodd" d="M11 20.0754L11 5L12 5L12 20.0754L11 20.0754Z" fill="#417A82"/>
<path fill-rule="evenodd" clip-rule="evenodd" d="M8 19.0402L8 5L9 5L9 19.0402L8 19.0402Z" fill="#417A82"/>
<path fill-rule="evenodd" clip-rule="evenodd" d="M5 15L5 5L6 5L6 15L5 15Z" fill="#417A82"/>
<path fill-rule="evenodd" clip-rule="evenodd" d="M2.00012 4H20.9221V22H8.00012V21H19.9221V5H3.00012V14.9221H2.00012V4Z" fill="#417A82"/>
</svg>
