<svg width="25" height="23" viewBox="0 0 25 23" fill="none" xmlns="http://www.w3.org/2000/svg">
<path fill-rule="evenodd" clip-rule="evenodd" d="M24 21H1V22H24V21ZM0 20V23H25V20H0Z" fill="#417A82"/>
<path fill-rule="evenodd" clip-rule="evenodd" d="M22 19H3V20H22V19ZM2 18V21H23V18H2Z" fill="#417A82"/>
<path fill-rule="evenodd" clip-rule="evenodd" d="M13.4523 6.70173H11.5477C11.5457 6.70105 11.5457 6.701 11.5458 6.70096L11.5464 6.69898L11.547 6.69709C11.5472 6.69639 11.5473 6.69598 11.5474 6.69585L11.545 6.703C11.5419 6.71193 11.5359 6.72886 11.5269 6.75264C11.5088 6.80039 11.4788 6.87454 11.4358 6.96619C11.3488 7.152 11.2148 7.39575 11.0284 7.63436C10.6579 8.10862 10.1388 8.5 9.375 8.5C8.61124 8.5 8.09214 8.10862 7.72162 7.63436C7.53521 7.39575 7.40125 7.152 7.31415 6.96619C7.27119 6.87454 7.24121 6.80039 7.2231 6.75264C7.21407 6.72886 7.2081 6.71193 7.20503 6.703L7.20261 6.69584C7.20265 6.69595 7.20278 6.69636 7.20302 6.69709L7.20362 6.69898L7.20402 6.70024C7.20403 6.70029 7.20427 6.70105 7.20229 6.70173H5.29771C5.29573 6.70105 5.29575 6.701 5.29576 6.70096L5.29638 6.69898L5.29698 6.69709C5.29722 6.69636 5.29735 6.69595 5.29739 6.69584L5.29497 6.703C5.2919 6.71193 5.28593 6.72886 5.2769 6.75264C5.25879 6.80039 5.22881 6.87454 5.18585 6.96619C5.09875 7.152 4.96479 7.39575 4.77838 7.63436C4.40786 8.10862 3.88876 8.5 3.125 8.5C2.30315 8.5 1.7749 8.13377 1.42636 7.74711C1.27961 7.58432 1.16761 7.41972 1.08704 7.28257L2.693 3H22.307L23.913 7.28257C23.8324 7.41972 23.7204 7.58432 23.5736 7.74711C23.2251 8.13377 22.6968 8.5 21.875 8.5C21.1112 8.5 20.5921 8.10862 20.2216 7.63436C20.0352 7.39575 19.9012 7.152 19.8141 6.96619C19.7712 6.87454 19.7412 6.80039 19.7231 6.75264C19.7141 6.72886 19.7081 6.71193 19.705 6.703L19.703 6.69709L19.704 6.70024C19.704 6.70029 19.7043 6.70105 19.7023 6.70173H17.7977C17.7957 6.70105 17.7957 6.701 17.7958 6.70096L17.797 6.69709L17.795 6.703C17.7919 6.71193 17.7859 6.72886 17.7769 6.75264C17.7588 6.80039 17.7288 6.87454 17.6859 6.96619C17.5988 7.152 17.4648 7.39575 17.2784 7.63436C16.9079 8.10862 16.3888 8.5 15.625 8.5C14.8612 8.5 14.3421 8.10862 13.9716 7.63436C13.7852 7.39575 13.6512 7.152 13.5642 6.96619C13.5212 6.87454 13.4912 6.80039 13.4731 6.75264C13.4641 6.72886 13.4581 6.71193 13.455 6.703L13.4526 6.69583C13.4526 6.6957 13.4527 6.69611 13.453 6.69709L13.4536 6.69898L13.454 6.70024C13.454 6.70029 13.4543 6.70105 13.4523 6.70173ZM18.1603 8.12497C18.5799 7.54431 18.75 7 18.75 7C18.75 7 18.9201 7.54431 19.3397 8.12497C19.8193 8.78873 20.6249 9.5 21.875 9.5C24.2188 9.5 25 7.33333 25 7.33333L23 2H2L0 7.33333C0 7.33333 0.78125 9.5 3.125 9.5C4.37514 9.5 5.18073 8.78873 5.66034 8.12497C6.0799 7.54431 6.25 7 6.25 7C6.25 7 6.4201 7.54431 6.83966 8.12497C7.31927 8.78873 8.12486 9.5 9.375 9.5C10.6251 9.5 11.4307 8.78873 11.9103 8.12497C12.3299 7.54431 12.5 7 12.5 7C12.5 7 12.6701 7.54431 13.0897 8.12497C13.5693 8.78873 14.3749 9.5 15.625 9.5C16.8751 9.5 17.6807 8.78873 18.1603 8.12497Z" fill="#417A82"/>
<path fill-rule="evenodd" clip-rule="evenodd" d="M2 18L2 9L3 9L3 18L2 18Z" fill="#417A82"/>
<path fill-rule="evenodd" clip-rule="evenodd" d="M22 18L22 9L23 9L23 18L22 18Z" fill="#417A82"/>
<path fill-rule="evenodd" clip-rule="evenodd" d="M22 1H3V2H22V1ZM2 0V3H23V0H2Z" fill="#417A82"/>
<path fill-rule="evenodd" clip-rule="evenodd" d="M24 7L1 7L1 6L24 6L24 7Z" fill="#417A82"/>
</svg>
