<svg width="22" height="22" viewBox="0 0 22 22" fill="none" xmlns="http://www.w3.org/2000/svg">
<path fill-rule="evenodd" clip-rule="evenodd" d="M12.847 1.99049L10.5528 0L8.25851 1.99049L5.27638 1.4138L4.28474 4.28474L1.4138 5.27638L1.99049 8.25851L0 10.5528L1.99049 12.847L1.4138 15.8291L4.28474 16.8208L5.27638 19.6917L8.25851 19.115L10.5528 21.1055L12.847 19.115L15.8291 19.6917L16.8208 16.8208L19.6917 15.8291L19.115 12.847L21.1055 10.5528L19.115 8.25851L19.6917 5.27638L16.8208 4.28474L15.8291 1.4138L12.847 1.99049ZM15.1672 2.56034L12.5592 3.06467L10.5528 1.3239L8.54634 3.06467L5.93833 2.56034L5.0711 5.0711L2.56034 5.93833L3.06467 8.54634L1.3239 10.5528L3.06467 12.5592L2.56034 15.1672L5.0711 16.0344L5.93833 18.5452L8.54634 18.0409L10.5528 19.7816L12.5592 18.0409L15.1672 18.5452L16.0344 16.0344L18.5452 15.1672L18.0409 12.5592L19.7816 10.5528L18.0409 8.54634L18.5452 5.93833L16.0344 5.0711L15.1672 2.56034Z" fill="#417A82"/>
<path fill-rule="evenodd" clip-rule="evenodd" d="M10.5527 15.583C13.3308 15.583 15.5829 13.3309 15.5829 10.5529C15.5829 7.77478 13.3308 5.52271 10.5527 5.52271C7.77466 5.52271 5.52258 7.77478 5.52258 10.5529C5.52258 13.3309 7.77466 15.583 10.5527 15.583ZM10.5527 16.583C13.8831 16.583 16.5829 13.8832 16.5829 10.5529C16.5829 7.2225 13.8831 4.52271 10.5527 4.52271C7.22237 4.52271 4.52258 7.2225 4.52258 10.5529C4.52258 13.8832 7.22237 16.583 10.5527 16.583Z" fill="#417A82"/>
</svg>
