<svg width="92" height="29" viewBox="0 0 92 29" fill="none" xmlns="http://www.w3.org/2000/svg">
<path d="M16.56 28.48H-2.43783e-05V0.479979H3.31998V25.52H16.56V28.48ZM16.8478 14.48C16.8478 9.81331 17.8345 6.23998 19.8078 3.75998C21.7811 1.25331 24.5945 -2.00272e-05 28.2478 -2.00272e-05C30.2211 -2.00272e-05 31.9278 0.346646 33.3678 1.03998C34.8078 1.73331 35.9945 2.71998 36.9278 3.99998C37.8878 5.25331 38.5945 6.77331 39.0478 8.55998C39.5011 10.32 39.7278 12.2933 39.7278 14.48C39.7278 19.1466 38.7278 22.7333 36.7278 25.24C34.7545 27.72 31.9278 28.96 28.2478 28.96C26.3011 28.96 24.6078 28.6133 23.1678 27.92C21.7545 27.2266 20.5678 26.2533 19.6078 25C18.6745 23.72 17.9811 22.2 17.5278 20.44C17.0745 18.6533 16.8478 16.6666 16.8478 14.48ZM20.3678 14.48C20.3678 16.0266 20.5145 17.4933 20.8078 18.88C21.1278 20.2666 21.6078 21.4933 22.2478 22.56C22.8878 23.6 23.7011 24.44 24.6878 25.08C25.7011 25.6933 26.8878 26 28.2478 26C30.7278 26 32.6745 25.0666 34.0878 23.2C35.5011 21.3066 36.2078 18.4 36.2078 14.48C36.2078 12.96 36.0478 11.5066 35.7278 10.12C35.4345 8.70665 34.9545 7.47998 34.2878 6.43998C33.6478 5.37331 32.8211 4.53331 31.8078 3.91998C30.8211 3.27998 29.6345 2.95998 28.2478 2.95998C25.7945 2.95998 23.8611 3.90665 22.4478 5.79998C21.0611 7.66665 20.3678 10.56 20.3678 14.48ZM54.7915 14.52H64.1915V26.84C63.7649 27.16 63.2449 27.4533 62.6315 27.72C62.0449 27.9866 61.4049 28.2133 60.7115 28.4C60.0449 28.5866 59.3382 28.72 58.5915 28.8C57.8715 28.9066 57.1649 28.96 56.4715 28.96C54.6849 28.96 53.0449 28.68 51.5515 28.12C50.0582 27.5333 48.7649 26.6533 47.6715 25.48C46.5782 24.28 45.7249 22.7733 45.1115 20.96C44.4982 19.12 44.1915 16.96 44.1915 14.48C44.1915 11.8933 44.5649 9.67998 45.3115 7.83998C46.0582 5.99998 47.0315 4.50665 48.2315 3.35998C49.4315 2.18665 50.7782 1.33331 52.2715 0.799979C53.7649 0.266646 55.2582 -2.00272e-05 56.7515 -2.00272e-05C58.3515 -2.00272e-05 59.6715 0.0933129 60.7115 0.279979C61.7515 0.439978 62.6315 0.666645 63.3515 0.95998L62.5115 3.87998C61.2315 3.26665 59.4049 2.95998 57.0315 2.95998C55.9115 2.95998 54.7915 3.15998 53.6715 3.55998C52.5782 3.93331 51.5915 4.57331 50.7115 5.47998C49.8315 6.38665 49.1115 7.57331 48.5515 9.03998C47.9915 10.5066 47.7115 12.32 47.7115 14.48C47.7115 16.4533 47.9382 18.16 48.3915 19.6C48.8449 21.04 49.4715 22.24 50.2715 23.2C51.0982 24.1333 52.0849 24.84 53.2315 25.32C54.3782 25.7733 55.6315 26 56.9915 26C58.6982 26 60.1515 25.6666 61.3515 25V17.2L54.7915 16.4V14.52ZM68.6837 14.48C68.6837 9.81331 69.6704 6.23998 71.6437 3.75998C73.6171 1.25331 76.4304 -2.00272e-05 80.0837 -2.00272e-05C82.0571 -2.00272e-05 83.7637 0.346646 85.2037 1.03998C86.6437 1.73331 87.8304 2.71998 88.7637 3.99998C89.7237 5.25331 90.4304 6.77331 90.8837 8.55998C91.3371 10.32 91.5637 12.2933 91.5637 14.48C91.5637 19.1466 90.5637 22.7333 88.5637 25.24C86.5904 27.72 83.7637 28.96 80.0837 28.96C78.1371 28.96 76.4437 28.6133 75.0037 27.92C73.5904 27.2266 72.4037 26.2533 71.4437 25C70.5104 23.72 69.8171 22.2 69.3637 20.44C68.9104 18.6533 68.6837 16.6666 68.6837 14.48ZM72.2037 14.48C72.2037 16.0266 72.3504 17.4933 72.6437 18.88C72.9637 20.2666 73.4437 21.4933 74.0837 22.56C74.7237 23.6 75.5371 24.44 76.5237 25.08C77.5371 25.6933 78.7237 26 80.0837 26C82.5637 26 84.5104 25.0666 85.9237 23.2C87.3371 21.3066 88.0437 18.4 88.0437 14.48C88.0437 12.96 87.8837 11.5066 87.5637 10.12C87.2704 8.70665 86.7904 7.47998 86.1237 6.43998C85.4837 5.37331 84.6571 4.53331 83.6437 3.91998C82.6571 3.27998 81.4704 2.95998 80.0837 2.95998C77.6304 2.95998 75.6971 3.90665 74.2837 5.79998C72.8971 7.66665 72.2037 10.56 72.2037 14.48Z" fill="#417A82"/>
</svg>
